<svg xmlns="http://www.w3.org/2000/svg" id="svg1890" width="470" height="470" version="1.0" viewBox="0 0 470 470"><path id="path1926" d="M433.78 345.748a117.268 105.136 0 1 1-234.535 0 117.268 105.136 0 1 1 234.535 0z" style="color:#000;fill:#0066b3;fill-opacity:1;fill-rule:evenodd;stroke:#0066b3;stroke-width:.61780667;stroke-linecap:round;stroke-linejoin:miter;stroke-miterlimit:4;stroke-opacity:1;stroke-dasharray:none;stroke-dashoffset:0;marker:none;visibility:visible;display:inline;overflow:visible" transform="matrix(1.91892 0 0 2.13333 -371.149 -502.337)"/><path id="path9909" d="M433.78 345.748a117.268 105.136 0 1 1-234.535 0 117.268 105.136 0 1 1 234.535 0z" style="color:#000;fill:#fff;fill-opacity:1;fill-rule:evenodd;stroke:#fff;stroke-width:.6240471;stroke-linecap:round;stroke-linejoin:miter;stroke-miterlimit:4;stroke-opacity:1;stroke-dasharray:none;stroke-dashoffset:0;marker:none;visibility:visible;display:inline;overflow:visible" transform="matrix(1.89973 0 0 2.112 -365.075 -494.96)"/><path id="path9911" d="M433.78 345.748a117.268 105.136 0 1 1-234.535 0 117.268 105.136 0 1 1 234.535 0z" style="color:#000;fill:#0066b3;fill-opacity:1;fill-rule:evenodd;stroke:#0066b3;stroke-width:.66953158;stroke-linecap:round;stroke-linejoin:miter;stroke-miterlimit:4;stroke-opacity:1;stroke-dasharray:none;stroke-dashoffset:0;marker:none;visibility:visible;display:inline;overflow:visible" transform="matrix(1.77067 0 0 1.96852 -324.227 -445.353)"/><g id="g3902"><path id="path3035" d="m84.62 274.348 42.833-10.242c-19.715-75.491 44.872-122.677 52.144-126.637l-8.38 43.578 62.76-78.962-86.225-42.274 21.416 33.521C64.055 154.792 78.575 238.05 84.62 274.348z" style="fill:#fff;fill-opacity:1;stroke:#fff;stroke-width:3.14090943;stroke-linecap:butt;stroke-linejoin:round;stroke-miterlimit:4;stroke-opacity:1;stroke-dasharray:none"/><path id="path3035-0" d="M277.977 84.124 265.43 126.34c75.234 20.673 83.805 100.199 83.598 108.477l-33.55-29.047 37.004 93.833 79.723-53.536-39.739 1.786c-.669-121.76-80.032-150.814-114.49-163.729z" style="fill:#fff;fill-opacity:1;stroke:#fff;stroke-width:3.14090943;stroke-linecap:butt;stroke-linejoin:round;stroke-miterlimit:4;stroke-opacity:1;stroke-dasharray:none"/><path id="path3035-8" d="m346.037 346.689-30.287-31.974c-55.52 54.819-128.677 22.479-135.743 18.16l41.93-14.531-99.763-14.87 6.502 95.81 18.322-35.309c105.782 60.301 170.626 6.098 199.04-17.286z" style="fill:#fff;fill-opacity:1;stroke:#fff;stroke-width:3.14090943;stroke-linecap:butt;stroke-linejoin:round;stroke-miterlimit:4;stroke-opacity:1;stroke-dasharray:none"/></g></svg>