<svg xmlns="http://www.w3.org/2000/svg" id="svg8" width="2780.901" height="65.181cm" version="1.1" viewBox="0 0 735.78 651.81"><g id="layer1" transform="translate(-189.886 1761.922)"><path id="path997" d="m244.382-1707.42 313.393 542.814L871.17-1707.42z" style="fill:none;fill-opacity:1;stroke:#000;stroke-width:104.99999237;stroke-linecap:butt;stroke-linejoin:round;stroke-miterlimit:4;stroke-dasharray:none;stroke-opacity:1"/><path id="path1110" d="m244.382-1707.42 313.393 542.814L871.17-1707.42z" style="fill:none;fill-opacity:1;stroke:#fff;stroke-width:100;stroke-linecap:butt;stroke-linejoin:round;stroke-miterlimit:4;stroke-dasharray:none;stroke-opacity:1"/><path id="path1112" d="m244.382-1707.42 313.392 542.812 313.393-542.812z" style="fill:#be121e;fill-opacity:1;stroke:#be121e;stroke-width:70;stroke-linecap:butt;stroke-linejoin:round;stroke-miterlimit:4;stroke-dasharray:none;stroke-opacity:1"/><path id="path946" d="m337.916-1653.42 219.86 380.809 219.86-380.809z" style="fill:#fff;fill-opacity:1;stroke:#fff;stroke-width:20;stroke-linecap:butt;stroke-linejoin:round;stroke-miterlimit:4;stroke-dasharray:none;stroke-opacity:1"/><path id="path1004" d="M518.74-1535.25c1.115.732 2.283.584 3.451.584 3.08.053 6.145 0 9.22 0 .796 0 1.699 0 2.548.053 4.408.318 7.393 3.51 7.393 7.903 0 4.243-3.134 7.61-7.467 7.903-.637.053-1.328.053-1.965.053-3.611 0-7.095-.053-10.61 0-2.709 0-2.868.16-2.921 3v30.078c0 1.39 0 2.708-.584 3.95-1.168 2.926-4.036 5.782-9.294 4.976-3.451-.584-6.441-4.243-6.367-7.538v-33.298c0-.584-.53-1.025-1.168-1.1-.744-.052-1.434-.052-2.284-.052-4.248-.053-8.412 0-12.66-.053-2.655 0-4.832-1.025-6.436-3.075-1.912-2.416-2.071-5.125-1.115-7.83 1.009-2.852 3.239-4.467 6.292-4.833.85-.16 1.912-.053 2.868-.16 3.611 0 7.249.054 10.908 0 1.115 0 2.283.16 3.346-.658 0-.265.53-.658.53-1.025v-9.733c0-1.535-.53-1.9-1.911-1.9-1.806-.054-3.664 0-5.486-.054-3.664-.16-6.367-2.193-7.54-5.562-1.488-4.169.902-8.782 5.097-10.025 1.169-.372 2.496-.531 3.664-.531 8.418-.053 16.83-.053 25.247 0 1.168 0 2.283.159 3.451.424 3.452.877 5.71 3.734 5.853 7.246 0 3.733-1.912 6.732-5.412 7.903-1.009.319-2.07.372-3.08.531-.743.053-1.54.053-2.283.16-.69 0-1.116.424-1.275 1.025v10.903c0 .159 0 .371.531.732" style="fill:#0066b3;fill-opacity:1;fill-rule:nonzero;stroke:none;stroke-width:.35277769"/><path id="path1006" d="M655.23-1494.342c.797-1.535.638-2.857.638-4.243v-48.227c0-1.173 0-2.49-.638-3.515-.956-.659-2.07-.531-3.08-.531h-10.026c-1.593 0-3.08-.372-4.408-1.243-2.867-1.832-3.876-4.535-3.505-7.83.531-3.075 2.071-5.125 4.833-6.22.53-.213 1.115-.372 1.593-.425.584-.053 1.168-.053 1.752-.053h47.64c1.01 0 2.125.053 3.134.425 3.664 1.173 5.64 4.758 4.992 8.928-.531 3.44-3.452 6.147-7.026 6.366a44 44 0 0 1-2.655.053h-12.591c-.797 0-1.54 0-2.284.053-1.38.053-1.752.532-1.805 1.758v62.859c0 3.44-2.496 7.025-6.362 7.757-2.39.424-12.3.53-14.567-.053-3.24-.808-5.411-3.442-5.778-6.733-.69-5.635 3.664-8.708 7.536-9 .796 0 1.7-.054 2.655-.16" style="fill:#0066b3;fill-opacity:1;fill-rule:nonzero;stroke:none;stroke-width:.35277769"/><path id="path1008" d="M594.414-1519.956a46 46 0 0 0-2.07 1.976c-.744.807-1.381 1.609-2.125 2.342-1.327 1.317-2.92 2.05-4.832 2.193-3.346.212-6.07-.95-7.685-3.951-1.593-3.075-1.38-6.147.744-8.928 1.54-1.976 18.31-21.442 24.97-29.2 1.009-1.168 1.965-2.416 3.08-3.366 4.301-3.734 10.977-2.05 12.734 3.218.956 2.926.531 5.708-1.54 8.123-1.54 1.832-2.974 3.659-4.673 5.415-1.487 1.535-2.071 3.292-2.071 5.416v51.959c-.531 4.025-3.717 7.318-7.833 7.318-4.036.053-7.61-3.144-7.902-7.245v-31.543c0-1.1 0-2.268-.743-3.733" style="fill:#0066b3;fill-opacity:1;fill-rule:nonzero;stroke:none;stroke-width:.35277769"/><path id="path1010" d="M447.462-1518.053c-1.01.733-1.593 1.1-2.071 1.535-1.593 1.609-3.08 3.366-4.673 5.05-.638.658-1.381 1.317-2.178 1.832-3.823 2.268-7.1 1.025-9.367-1.243-2.496-2.56-2.337-7.17-.638-9.367.531-.53.797-1.025 1.328-1.534 9.07-9.953 18.22-19.906 27.365-29.785.584-.658 1.168-1.243 1.752-1.832 2.337-2.124 5.045-2.268 7.833-1.243 4.408 1.684 6.07 7.61 2.868 11.562-1.168 1.466-2.496 2.852-3.823 4.243-3.293 3.734-3.08 2.491-3.08 7.83v47.127c0 3.659-2.921 6.586-6.734 7.025-2.656.266-6.442-1.242-7.833-5.05-.531-1.317-.531-2.634-.531-3.95v-32.202" style="fill:#0066b3;fill-opacity:1;fill-rule:nonzero;stroke:none;stroke-width:.35277769"/><path id="path1012" d="M508.565-1587.575c-1.594.807-2.337 1.976-3.293 2.926a3838 3838 0 0 1-15.73 17.125 15.3 15.3 0 0 1-1.965 2.05c-2.336 1.9-4.991 2.342-7.753 1.173-2.868-1.242-4.301-3.51-4.62-6.44 0-1.9.584-3.659 1.7-5.124.796-.95 1.699-1.827 2.495-2.783 7.392-8.05 14.785-16.1 22.172-24.077.53-.584 1.009-1.173 1.54-1.683 2.708-2.56 6.659-3 10.026-.733a15.7 15.7 0 0 1 1.965 1.683c8.778 7.977 17.487 16.027 26.27 24.077.532.424 1.01.876 1.382 1.317 3.08 3.659 2.39 7.83 0 10.538-2.709 3.144-7.175 3.733-10.61 1.317-1.275-.807-2.284-1.832-3.293-2.783-5.927-5.489-11.853-10.904-17.78-16.32-.796-.807-1.752-1.465-2.655-2.267" style="fill:#0066b3;fill-opacity:1;fill-rule:nonzero;stroke:none;stroke-width:.35277769"/><path id="path1014" d="M428.583-1567.523c0-2.124.744-3.951 2.177-5.635 1.381-1.61 17.36-19.391 23.871-26.636 1.168-1.317 2.496-2.417 4.195-3.075 4.09-1.46 8.779.876 10.096 5.05 1.009 3 .53 5.635-1.7 7.976-2.336 2.635-18.294 20.418-23.934 26.712-1.221 1.317-2.55 2.485-4.302 3.144-4.301 1.683-10.461-1.684-10.387-7.538" style="fill:#0066b3;fill-opacity:1;fill-rule:nonzero;stroke:none;stroke-width:.35277769"/><path id="path1016" d="M584.755-1559.473c-3.611 0-5.778-1.317-7.244-3.808-1.434-2.634-1.38-5.342 0-7.904.531-.876 1.222-1.683 1.965-2.485 7.175-8.342 14.344-16.685 21.518-25.028.797-.95 1.593-1.9 2.55-2.708 4.672-3.951 10.392-.95 11.852 2.56 1.01 2.416 1.01 4.827 0 7.17-.53.734-1.009 1.461-1.54 2.125-7.535 8.708-15.15 17.49-22.686 26.272-.531.584-1.01 1.173-1.54 1.683-1.54 1.46-3.293 2.268-4.833 2.124" style="fill:#0066b3;fill-opacity:1;fill-rule:nonzero;stroke:none;stroke-width:.35277769"/><path id="path1018" d="M649.814-1588.014c-1.01 0-2.072-.053-3.134-.053-3.505-.212-6.436-3.584-6.659-7.098-.531-5.268 3.824-8.709 7.833-8.709h32.787c1.38 0 2.761.053 4.142.659 3.293 1.391 5.343 4.901 4.78 8.635-.585 3.807-3.718 6.44-6.952 6.513-.956 0-1.912.053-2.92.053" style="fill:#0066b3;fill-opacity:1;fill-rule:nonzero;stroke:none;stroke-width:.35277769"/><path id="path1020" d="M543.11-1488.342c0 4.243-2.284 7.172-5.71 7.977a7.444 7.444 0 0 1-8.342-4.1c-.531-.53-.531-1.025-.584-1.609-1.594-5.489-3.134-10.977-4.78-16.465-.53-1.243-.53-2.491 0-3.734.744-3.218 3.452-5.562 6.66-5.781 3.558-.213 6.367 1.465 7.61 4.832.743 1.827 1.168 3.808 1.752 5.708 1.009 3.584 2.071 7.172 3.027 10.757.53 1.025.53 2.05.53 2.417" style="fill:#0066b3;fill-opacity:1;fill-rule:nonzero;stroke:none;stroke-width:.35277769"/><path id="path1022" d="M483.685-1480.146c-3.664.213-7.026-2.634-7.026-6.732 0-1.1 0-2.342.531-3.367 1.54-5.05 3.24-10.026 4.78-15.076.743-2.342 2.177-4.025 4.46-4.901 2.656-.95 5.098-.425 7.244 1.391 2.124 1.901 2.761 4.243 2.177 7.025 0 .585 0 1.1-.53 1.684-1.435 4.684-2.975 9.44-4.462 14.197 0 .53-.53 1.1-.69 1.609-1.221 2.708-3.452 4.243-6.51 4.174" style="fill:#0066b3;fill-opacity:1;fill-rule:nonzero;stroke:none;stroke-width:.35277769"/></g></svg>