<svg xmlns="http://www.w3.org/2000/svg" id="svg825" width="2282.835" height="2602.62" version="1.1" viewBox="0 0 604 688.61"><g id="layer1" transform="translate(-81.559 1470.532)"><path id="rect1474" d="m118.559-983.922 265-449.61 265 449.61v165h-530Z" style="display:inline;opacity:1;fill:none;fill-opacity:1;fill-rule:nonzero;stroke:#0066b3;stroke-width:70;stroke-linecap:butt;stroke-linejoin:round;stroke-miterlimit:4;stroke-dasharray:none;stroke-opacity:1;paint-order:fill markers stroke"/><path id="path872" d="m118.559-983.922 265-449.61 265 449.61v165h-530Z" style="display:inline;opacity:1;fill:none;fill-opacity:1;fill-rule:nonzero;stroke:#fff;stroke-width:42;stroke-linecap:butt;stroke-linejoin:round;stroke-miterlimit:4;stroke-dasharray:none;stroke-opacity:1;paint-order:fill markers stroke"/><path id="path885" d="m118.559-983.922 265-449.61 265 449.61v165h-530Z" style="display:inline;opacity:1;fill:#0066b3;fill-opacity:1;fill-rule:nonzero;stroke:#0066b3;stroke-width:14;stroke-linecap:butt;stroke-linejoin:round;stroke-miterlimit:4;stroke-dasharray:none;stroke-opacity:1;paint-order:fill markers stroke"/><path id="path1545" d="M622.257-873.922c2.354 0 4.944 1.81 5.7 4l10.114 28.1c1.598 4.373-.892 7.9-5.514 7.9h-498c-4.622 0-7.112-3.527-5.514-7.9l10.114-28.1c.756-2.19 3.346-4 5.7-4z" style="display:inline;fill:#fff;fill-opacity:1;fill-rule:nonzero;stroke:none;stroke-width:.352778"/><path id="path1613" d="M229.339-913.922c1.765 0 3.708-1.358 4.275-3l7.585-21.076c1.198-3.279-.669-5.924-4.136-5.924h-67.28c-1.766 0-3.708 1.358-4.275 3l-7.586 21.075c-1.198 3.28.67 5.925 4.136 5.925z" style="display:inline;fill:#fff;fill-opacity:1;fill-rule:nonzero;stroke:none;stroke-width:.352778"/><path id="path1005" d="M242.339-1029.922c1.765 0 3.708-1.358 4.275-3l7.585-21.076c1.198-3.279-.669-5.924-4.136-5.924h-40.28c-1.766 0-3.708 1.358-4.275 3l-7.586 21.075c-1.198 3.28.67 5.925 4.136 5.925z" style="display:inline;fill:#fff;fill-opacity:1;fill-rule:nonzero;stroke:none;stroke-width:.352778"/><path id="path1007" d="M548.78-1029.922c-1.766 0-3.709-1.358-4.276-3l-7.585-21.076c-1.198-3.279.669-5.924 4.136-5.924h25.28c1.766 0 3.708 1.358 4.275 3l7.586 21.075c1.198 3.28-.67 5.925-4.136 5.925z" style="display:inline;fill:#fff;fill-opacity:1;fill-rule:nonzero;stroke:none;stroke-width:.352778"/><path id="path2041" d="m280.176-1130.823-3.103 2.48s-2.981 15.053-6.51 16.322l-6.418.649c-1.095-2.769-3.803-2.12-3.803-2.12-6.692-10.381-2.13-22.002-2.13-22.002l-5.049-2.192 5.293-52.828 39.91-67.477 28.681-16.441c-1.462-3.507-.45-27.045-.45-27.045l-14.724-6.574c-.698-.323-2.312-3.172-.365-4.268l14.967-6.69-.365-7.729c12.228-7.208 34.921-8.247 44.047-2.422l-1.338 2.538c1.4 2.941 0 4.902 0 4.902l1.4 1.961 15.878 4.793v4.06l-14.114 7.18-5.537 27.626c-2.465 1.288-8.282 2.13-10.337 4.748l-1.798-.206c-2.086.612-2.831 2.724-2.831 2.724l.182 1.5 16.898 11.463 22.586 54.32 36.825 32.624-.556 3.858c3.745 2.251 6.226 3.32 10.985 10.611v4.448l-3.605 4.504c-2.007 1.904-7.704 2.022-9.012 1.503 0 0-4.357-1.612-5.057-2.881-3.706-4.796-4.312-4.29-12.2.469l-4.646.815-35.105-30.993-6.539 36.295 32.912 64.724 28.451 98.134c2.179 7.515 17.364.51 20.29 7.198 3.097 8.32-1.531 12.695-5.489 14.49l-32.69 12.041s-8.115 2.936-10.004-2.715l-30.114-90.044-28.221-44.37-56.442 112.066c-2.573 5.107-1.377 11.419 2.58 13.213 2.066 1.55 6.712 8.483 4.303 13.54-3.012 5.709-13.217 1.836-13.217 1.836l-28.794-17.792s-6.325-4.86-3.528-11.765c0 0 56.824-137.146 57.432-141.76-3.95-2.95-3.743-2.503-2.92-6.92-2.792-2.1-.901-4.212-.821-5.306-.061-.721-1.37-1.01-1.309-1.99.122-1.298 1.43-1.557 1.491-2.51l-.335-2.19 9.978-76.706-21.78 31.375z" style="display:inline;fill:#fff;fill-opacity:1;stroke:none;stroke-width:.682206px;stroke-linecap:butt;stroke-linejoin:miter;stroke-opacity:1"/><path id="path1282-7" d="M460.753-1167.2a7.44 7.44 0 0 0-7.454 7.455 7.44 7.44 0 0 0 7.454 7.454h39.396a3.24 3.24 0 0 1 3.239 3.238c0 1.788-1.448 2.802-3.236 3.237l-10.948 2.663a7.44 7.44 0 0 0-5.48 9.005l12.25 46.435H367.385l-9.54-18.924c6.592-.47 11.97-1.22 13.197-2.415 1.029-1.122.631-5.425-2.386-6.478-3.403-1.265-44.106-11.385-44.106-7.086v14.125c0 1.59 1.193 2.63 2.526 2.62 0 0 6.445.059 14.411-.096l11.238 22.29-17.22 65.012a67.7 67.7 0 0 0-13.314-1.332 67.74 67.74 0 0 0-67.739 67.738 67.74 67.74 0 0 0 67.74 67.74 67.74 67.74 0 0 0 67.29-60.286h6.156a38.78 38.78 0 0 0 31.271 30.66v2.939h-7.408v11.906h28.31v-11.906h-7.408v-2.88a38.776 38.776 0 0 0 32.03-38.173 38.78 38.78 0 0 0-13.693-29.35l41.168-91.195 16.06 60.874a67.74 67.74 0 0 0-36.372 59.671 67.74 67.74 0 0 0 67.739 67.74 67.74 67.74 0 0 0 67.739-67.74 67.74 67.74 0 0 0-67.74-67.738 67.7 67.7 0 0 0-17.425 2.579l-29.934-113.011 7.315-1.78c5.35-1.302 12.853-7.588 12.853-16.843 0-10.645-7.502-18.147-18.205-18.147zm-85.852 94.396h108.65l-35.74 79.168v-11.58h-28.31v11.906h7.408v2.938a38.8 38.8 0 0 0-8.991 2.895zm-12.066 9.183 42.77 84.84a38.8 38.8 0 0 0-9.967 19.068h-6.442a67.74 67.74 0 0 0-39.505-54.284zm-40.644 58.533a53 53 0 0 1 9.436 1.063l-11.547 43.59a8.595 8.595 0 0 0-6.484 8.176 8.595 8.595 0 0 0 8.595 8.595 8.6 8.6 0 0 0 4.236-1.141h48.04a52.83 52.83 0 0 1-52.276 45.376 52.83 52.83 0 0 1-52.83-52.83 52.83 52.83 0 0 1 52.83-52.83zm225.144 0a52.83 52.83 0 0 1 52.83 52.83 52.83 52.83 0 0 1-52.83 52.83 52.83 52.83 0 0 1-52.83-52.83 52.83 52.83 0 0 1 25.397-44.765l3.206 12.154c3.974 15.002 11.301 26.843 15.726 33.086a8.595 8.595 0 0 0 8.5 8.12 8.595 8.595 0 0 0 8.596-8.596 8.595 8.595 0 0 0-7.073-8.292c-3.84-7.105-8.875-18.84-11.337-28.136l-3.82-14.42a52.8 52.8 0 0 1 13.635-1.981zm-201.508 5.68a52.83 52.83 0 0 1 28.354 39.695h-38.869zm94.576 6.098h7.262l-1.945 4.308a39 39 0 0 0-5.317-1.37zm-13.494 18.244v5.425l-2.238-4.44a24 24 0 0 1 2.238-.985zm25.295 7.935a23.87 23.87 0 0 1 5.32 14.873 23.87 23.87 0 0 1-17.12 22.882v-11.615zm-39.195 3.033 2.21 4.385h-4.054a24 24 0 0 1 1.844-4.385zm-1.844 19.293h15.744v15.355a23.87 23.87 0 0 1-15.744-15.355z" style="display:inline;fill:#0066b3;fill-opacity:1;stroke:#0066b3;stroke-width:5.29167;stroke-linecap:round;stroke-miterlimit:4;stroke-dasharray:none;stroke-opacity:1"/><path id="path1629" d="M1818.39 1990.338a66.03 66.03 0 0 1-57.978 34.521 66.03 66.03 0 0 1-57.978-34.521h-26.782c-13.102 0-20.16 9.997-15.63 22.39l28.67 79.657c2.143 6.205 9.484 11.338 16.156 11.338h136.715a166.13 166.13 0 0 0 81.904-113.385z" style="display:inline;fill:#fff;fill-opacity:1;fill-rule:nonzero;stroke:none;stroke-width:1.33333" transform="translate(81.559 -1470.532)scale(.26458)"/><path id="path1493" d="M460.753-1167.2a7.44 7.44 0 0 0-7.454 7.455 7.44 7.44 0 0 0 7.454 7.454h39.396a3.24 3.24 0 0 1 3.239 3.238c0 1.788-1.448 2.802-3.236 3.237l-10.948 2.663a7.44 7.44 0 0 0-5.48 9.005l12.25 46.435H367.385l-9.54-18.924c6.592-.47 11.97-1.22 13.197-2.415 1.029-1.122.631-5.425-2.386-6.478-3.403-1.265-44.106-11.385-44.106-7.086v14.125c0 1.59 1.193 2.63 2.526 2.62 0 0 6.445.059 14.411-.096l11.238 22.29-17.22 65.012a67.7 67.7 0 0 0-13.314-1.332 67.74 67.74 0 0 0-67.739 67.738 67.74 67.74 0 0 0 67.74 67.74 67.74 67.74 0 0 0 67.29-60.286h6.156a38.78 38.78 0 0 0 31.271 30.66v2.939h-7.408v11.906h28.31v-11.906h-7.408v-2.88a38.776 38.776 0 0 0 32.03-38.173 38.78 38.78 0 0 0-13.693-29.35l41.168-91.195 16.06 60.874a67.74 67.74 0 0 0-36.372 59.671 67.74 67.74 0 0 0 67.739 67.74 67.74 67.74 0 0 0 67.739-67.74 67.74 67.74 0 0 0-67.74-67.738 67.7 67.7 0 0 0-17.425 2.579l-29.934-113.011 7.315-1.78c5.35-1.302 12.853-7.588 12.853-16.843 0-10.645-7.502-18.147-18.205-18.147zm-85.852 94.396h108.65l-35.74 79.168v-11.58h-28.31v11.906h7.408v2.938a38.8 38.8 0 0 0-8.991 2.895zm-12.066 9.183 42.77 84.84a38.8 38.8 0 0 0-9.967 19.068h-6.442a67.74 67.74 0 0 0-39.505-54.284zm-40.644 58.533a53 53 0 0 1 9.436 1.063l-11.547 43.59a8.595 8.595 0 0 0-6.484 8.176 8.595 8.595 0 0 0 8.595 8.595 8.6 8.6 0 0 0 4.236-1.141h48.04a52.83 52.83 0 0 1-52.276 45.376 52.83 52.83 0 0 1-52.83-52.83 52.83 52.83 0 0 1 52.83-52.83m225.144 0a52.83 52.83 0 0 1 52.83 52.83 52.83 52.83 0 0 1-52.83 52.83 52.83 52.83 0 0 1-52.83-52.83 52.83 52.83 0 0 1 25.397-44.765l3.206 12.154c3.974 15.002 11.301 26.843 15.726 33.086a8.595 8.595 0 0 0 8.5 8.12 8.595 8.595 0 0 0 8.596-8.596 8.595 8.595 0 0 0-7.073-8.292c-3.84-7.105-8.875-18.84-11.337-28.136l-3.82-14.42a52.8 52.8 0 0 1 13.635-1.981m-201.508 5.68a52.83 52.83 0 0 1 28.354 39.695h-38.869zm94.576 6.098h7.262l-1.945 4.308a39 39 0 0 0-5.317-1.37zm-13.494 18.244v5.425l-2.238-4.44a24 24 0 0 1 2.238-.985m25.295 7.935a23.87 23.87 0 0 1 5.32 14.873 23.87 23.87 0 0 1-17.12 22.882v-11.615zm-39.195 3.033 2.21 4.385h-4.054a24 24 0 0 1 1.844-4.385m-1.844 19.293h15.744v15.355a23.87 23.87 0 0 1-15.744-15.355" style="display:inline;fill:#fff;fill-opacity:1;stroke-width:2.2016;stroke-linecap:round;stroke-miterlimit:4;stroke-dasharray:none"/></g></svg>