<?xml version="1.0" encoding="UTF-8"?>
<svg xmlns="http://www.w3.org/2000/svg" version="1.1" width="1000" height="1000" viewBox="0 0 1000 1000">
  <title>規制標示109の2 優先本線車道</title>
  <rect x="0" y="0" width="1000" height="1000" fill="#b9c2b0"/>
  <rect x="200" y="0" width="420" height="1000" fill="#4a4f55"/>
  <path d="M620,300 C700,520 800,760 960,1000 L620,1000 Z" fill="#4a4f55"/>
  <rect x="216" y="0" width="18" height="1000" fill="#ffffff"/>
  <rect x="401" y="-40" width="18" height="120" fill="#ffffff"/>
  <rect x="401" y="200" width="18" height="120" fill="#ffffff"/>
  <rect x="401" y="440" width="18" height="120" fill="#ffffff"/>
  <rect x="401" y="680" width="18" height="120" fill="#ffffff"/>
  <rect x="401" y="920" width="18" height="80" fill="#ffffff"/>
  <rect x="586" y="0" width="18" height="300" fill="#ffffff"/>
  <rect x="588" y="330" width="44" height="70" fill="#ffffff"/>
  <rect x="588" y="455" width="44" height="70" fill="#ffffff"/>
  <rect x="588" y="580" width="44" height="70" fill="#ffffff"/>
  <rect x="588" y="705" width="44" height="70" fill="#ffffff"/>
  <rect x="588" y="830" width="44" height="70" fill="#ffffff"/>
  <rect x="588" y="955" width="44" height="45" fill="#ffffff"/>
  <path d="M648,330 C720,540 820,770 985,1000" fill="none" stroke="#ffffff" stroke-width="18"/>
</svg>
