<?xml version="1.0" encoding="UTF-8"?>
<svg xmlns="http://www.w3.org/2000/svg" version="1.1" width="1000" height="1000" viewBox="0 0 1000 1000">
  <title>規制標示115 終わり（転回禁止）</title>
  <rect x="0" y="0" width="1000" height="1000" fill="#4a4f55"/>
  <rect x="0" y="0" width="100" height="1000" fill="#c4c8cc"/>
  <rect x="86" y="0" width="14" height="1000" fill="#9da2a8"/>
  <rect x="900" y="0" width="100" height="1000" fill="#c4c8cc"/>
  <rect x="900" y="0" width="14" height="1000" fill="#9da2a8"/>
  <rect x="491" y="0" width="18" height="1000" fill="#ffffff"/>
  <path d="M630,110 Q630,40 690,40 Q750,40 750,110 L750,370 Q750,440 690,440 Q630,440 630,370 Z" fill="none" stroke="#ffffff" stroke-width="20"/>
  <line x1="728" y1="100" x2="652" y2="380" stroke="#ffffff" stroke-width="20"/>
  <path d="M643.8,960 L643.8,579.4 A46.2,46.2 0 0 1 736.2,579.4 L736.2,740" fill="none" stroke="#ffc700" stroke-width="26.4" stroke-linecap="butt"/>
  <polygon points="736.2,960.0 698.8,729.0 773.6,729.0" fill="#ffc700"/>
</svg>
